<svg width="130" height="107" viewBox="0 0 130 107" fill="none" xmlns="http://www.w3.org/2000/svg">
<path d="M2.628 32V9.428H5.004L16.308 28.148V9.428H18.36V32H16.128L4.752 12.992V32H2.628ZM27.5763 11.336C27.1203 11.336 26.7363 11.204 26.4243 10.94C26.1123 10.652 25.9563 10.268 25.9563 9.788C25.9563 9.308 26.1123 8.924 26.4243 8.636C26.7363 8.324 27.1203 8.168 27.5763 8.168C28.0323 8.168 28.4043 8.312 28.6923 8.6C29.0043 8.864 29.1603 9.248 29.1603 9.752C29.1603 10.256 29.0043 10.652 28.6923 10.94C28.4043 11.204 28.0323 11.336 27.5763 11.336ZM23.0763 32V30.416H26.4243V16.268H23.0763V14.684H28.6923V30.416H32.0763V32H23.0763ZM35.3894 8.132H37.6574V23.324C40.7294 20.06 43.3694 17.18 45.5774 14.684H48.2774L40.9694 22.82L48.8894 32H46.2974L39.2414 23.936L37.6574 25.376V32H35.3894V8.132ZM56.0177 11.336C55.5617 11.336 55.1777 11.204 54.8657 10.94C54.5537 10.652 54.3977 10.268 54.3977 9.788C54.3977 9.308 54.5537 8.924 54.8657 8.636C55.1777 8.324 55.5617 8.168 56.0177 8.168C56.4737 8.168 56.8457 8.312 57.1337 8.6C57.4457 8.864 57.6017 9.248 57.6017 9.752C57.6017 10.256 57.4457 10.652 57.1337 10.94C56.8457 11.204 56.4737 11.336 56.0177 11.336ZM51.5177 32V30.416H54.8657V16.268H51.5177V14.684H57.1337V30.416H60.5177V32H51.5177ZM69.6628 32.18C68.4388 32.156 67.4908 31.892 66.8188 31.388C66.1468 30.884 65.6788 30.14 65.4148 29.156C65.1748 28.172 65.0548 26.852 65.0548 25.196V16.268H62.3548V14.684H65.1268L65.5588 9.716H67.3228V14.684H72.7228V16.268H67.3228V25.232C67.3228 26.72 67.4308 27.824 67.6468 28.544C67.8868 29.264 68.1988 29.744 68.5828 29.984C68.9908 30.2 69.5548 30.308 70.2748 30.308C71.5708 30.308 72.4468 30.272 72.9028 30.2L73.0108 32C72.0748 32.12 70.9588 32.18 69.6628 32.18ZM81.9138 32.18C80.2338 32.18 78.8778 31.76 77.8458 30.92C76.8378 30.08 76.3338 28.868 76.3338 27.284C76.3338 25.748 77.0058 24.488 78.3498 23.504C79.6938 22.52 81.8898 22.028 84.9378 22.028H86.4498V21.488C86.4498 19.568 86.1138 18.224 85.4418 17.456C84.7938 16.664 83.8698 16.268 82.6698 16.268C82.0218 16.268 81.3738 16.34 80.7258 16.484C80.0778 16.604 79.0938 16.832 77.7738 17.168L77.3418 15.44C79.3578 14.768 81.1578 14.432 82.7418 14.432C84.5658 14.432 86.0058 14.972 87.0618 16.052C88.1418 17.108 88.6818 18.812 88.6818 21.164V32H87.0618L86.7018 30.848C86.2698 31.184 85.5858 31.496 84.6498 31.784C83.7138 32.048 82.8018 32.18 81.9138 32.18ZM82.2378 30.38C82.9818 30.38 83.7498 30.272 84.5418 30.056C85.3338 29.816 85.9698 29.54 86.4498 29.228V23.684H85.4778C83.4858 23.684 81.8178 23.912 80.4738 24.368C79.1298 24.824 78.4578 25.736 78.4578 27.104C78.4578 28.184 78.7818 29 79.4298 29.552C80.0778 30.104 81.0138 30.38 82.2378 30.38ZM2.628 39.428H8.244C10.068 39.428 11.52 39.584 12.6 39.896C13.704 40.208 14.52 40.76 15.048 41.552C15.6 42.344 15.876 43.472 15.876 44.936C15.876 46.376 15.612 47.492 15.084 48.284C14.58 49.076 13.704 49.628 12.456 49.94C13.776 50.252 14.808 50.864 15.552 51.776C16.296 52.664 16.668 53.864 16.668 55.376C16.668 57.152 16.356 58.52 15.732 59.48C15.108 60.44 14.184 61.1 12.96 61.46C11.76 61.82 10.176 62 8.208 62H2.628V39.428ZM8.964 49.292C10.692 49.292 11.94 48.98 12.708 48.356C13.5 47.708 13.896 46.568 13.896 44.936C13.896 43.544 13.488 42.572 12.672 42.02C11.88 41.468 10.548 41.192 8.676 41.192H4.86V49.292H8.964ZM8.316 60.236C9.732 60.236 10.872 60.116 11.736 59.876C12.6 59.636 13.26 59.168 13.716 58.472C14.196 57.776 14.436 56.756 14.436 55.412C14.436 53.852 13.98 52.724 13.068 52.028C12.156 51.308 10.8 50.948 9 50.948H4.86V60.236H8.316ZM27.6413 62.18C22.6733 62.18 20.1893 59.216 20.1893 53.288C20.1893 50.336 20.8253 48.128 22.0973 46.664C23.3693 45.176 25.0733 44.432 27.2093 44.432C29.1293 44.432 30.6413 45.068 31.7453 46.34C32.8733 47.588 33.4373 49.268 33.4373 51.38L33.3653 53L33.2933 53.756H22.4213C22.4453 56.228 22.9253 57.944 23.8613 58.904C24.7973 59.84 26.0093 60.308 27.4973 60.308C28.4093 60.308 29.2613 60.2 30.0533 59.984C30.8453 59.768 31.6373 59.408 32.4293 58.904L33.1133 60.668C32.2973 61.172 31.3973 61.556 30.4133 61.82C29.4533 62.06 28.5293 62.18 27.6413 62.18ZM31.3493 52.172V51.308C31.3493 49.772 30.9773 48.548 30.2333 47.636C29.4893 46.724 28.4813 46.268 27.2093 46.268C25.7453 46.268 24.6173 46.784 23.8253 47.816C23.0333 48.848 22.5653 50.3 22.4213 52.172H31.3493ZM36.4506 62V60.416H40.3746V39.716H36.4866V38.132H42.6426V60.416H46.3506V62H36.4506ZM55.8548 62.18C53.5748 62.18 51.8828 61.412 50.7788 59.876C49.6748 58.316 49.1228 56.12 49.1228 53.288C49.1228 50.336 49.6628 48.128 50.7428 46.664C51.8228 45.176 53.5268 44.432 55.8548 44.432C58.1828 44.432 59.8868 45.176 60.9668 46.664C62.0708 48.128 62.6228 50.336 62.6228 53.288C62.6228 56.12 62.0708 58.316 60.9668 59.876C59.8628 61.412 58.1588 62.18 55.8548 62.18ZM55.8548 60.308C57.5108 60.308 58.6748 59.708 59.3468 58.508C60.0188 57.308 60.3548 55.568 60.3548 53.288C60.3548 51.056 60.0068 49.328 59.3108 48.104C58.6388 46.88 57.4868 46.268 55.8548 46.268C54.2228 46.268 53.0588 46.88 52.3628 48.104C51.6908 49.328 51.3548 51.056 51.3548 53.288C51.3548 55.568 51.6908 57.308 52.3628 58.508C53.0348 59.708 54.1988 60.308 55.8548 60.308ZM71.9277 62.18C70.1517 62.18 68.8437 61.712 68.0037 60.776C67.1877 59.84 66.7797 58.364 66.7797 56.348V44.684H69.0117V56.456C69.0117 57.848 69.2397 58.844 69.6957 59.444C70.1517 60.02 70.9677 60.308 72.1437 60.308C73.0797 60.308 73.9077 60.248 74.6277 60.128C75.3717 59.984 76.1997 59.648 77.1117 59.12V44.684H79.3797V62H77.5077L77.3637 60.884C76.2597 61.412 75.3117 61.76 74.5197 61.928C73.7277 62.096 72.8637 62.18 71.9277 62.18ZM89.5478 62.18C88.6118 62.18 87.6278 62.06 86.5957 61.82C85.5878 61.556 84.6398 61.208 83.7518 60.776L84.4718 59.048C85.0718 59.384 85.8278 59.684 86.7398 59.948C87.6758 60.188 88.5758 60.308 89.4398 60.308C90.5198 60.308 91.3838 60.08 92.0318 59.624C92.7038 59.144 93.0398 58.388 93.0398 57.356C93.0398 56.54 92.8478 55.928 92.4638 55.52C92.1038 55.112 91.5278 54.776 90.7358 54.512L88.1078 53.72C87.1478 53.408 86.3798 53.084 85.8038 52.748C85.2278 52.412 84.7838 51.956 84.4718 51.38C84.1598 50.78 84.0038 50.012 84.0038 49.076C84.0038 47.516 84.5438 46.352 85.6238 45.584C86.7038 44.816 88.0598 44.432 89.6918 44.432C91.3958 44.432 92.9558 44.768 94.3718 45.44L93.7238 47.132C93.1718 46.868 92.5478 46.664 91.8518 46.52C91.1798 46.352 90.5198 46.268 89.8718 46.268C88.7918 46.268 87.9038 46.508 87.2078 46.988C86.5118 47.444 86.1638 48.176 86.1638 49.184C86.1638 49.712 86.2598 50.12 86.4518 50.408C86.6438 50.696 86.9078 50.924 87.2438 51.092C87.5798 51.26 88.0838 51.452 88.7558 51.668L91.3477 52.496C92.7638 52.952 93.7598 53.516 94.3358 54.188C94.9358 54.86 95.2358 55.88 95.2358 57.248C95.2358 58.952 94.6958 60.2 93.6158 60.992C92.5598 61.784 91.2038 62.18 89.5478 62.18ZM105.214 62.18C102.934 62.18 101.242 61.412 100.138 59.876C99.0342 58.316 98.4822 56.12 98.4822 53.288C98.4822 50.336 99.0222 48.128 100.102 46.664C101.182 45.176 102.886 44.432 105.214 44.432C107.542 44.432 109.246 45.176 110.326 46.664C111.43 48.128 111.982 50.336 111.982 53.288C111.982 56.12 111.43 58.316 110.326 59.876C109.222 61.412 107.518 62.18 105.214 62.18ZM105.214 60.308C106.87 60.308 108.034 59.708 108.706 58.508C109.378 57.308 109.714 55.568 109.714 53.288C109.714 51.056 109.366 49.328 108.67 48.104C107.998 46.88 106.846 46.268 105.214 46.268C103.582 46.268 102.418 46.88 101.722 48.104C101.05 49.328 100.714 51.056 100.714 53.288C100.714 55.568 101.05 57.308 101.722 58.508C102.394 59.708 103.558 60.308 105.214 60.308ZM120.783 62L115.023 44.684H117.291L122.007 59.588L126.471 44.684H128.775L123.195 62H120.783Z" fill="#FFE600"/>
<path d="M8 83.4L1.06 78.5V77.86L8 73.1L8.56 73.94L2.28 78.18L8.54 82.54L8 83.4ZM12.3042 75.28H10.4242V74.38H12.3042C12.3042 73.3933 12.3709 72.6267 12.5042 72.08C12.6376 71.52 12.8842 71.1067 13.2442 70.84C13.6042 70.56 14.1309 70.4067 14.8242 70.38C15.5176 70.38 16.1242 70.4667 16.6442 70.64L16.4842 71.62C16.3109 71.58 16.0776 71.54 15.7842 71.5C15.5042 71.4467 15.2776 71.42 15.1042 71.42C14.7042 71.42 14.3976 71.4933 14.1842 71.64C13.9709 71.7733 13.8109 72.0533 13.7042 72.48C13.6109 72.8933 13.5642 73.5267 13.5642 74.38H15.7442V75.28H13.5642V84H12.3042V75.28ZM20.6434 84.1C19.6568 84.1 18.9301 83.84 18.4634 83.32C18.0101 82.8 17.7834 81.98 17.7834 80.86V74.38H19.0234V80.92C19.0234 81.6933 19.1501 82.2467 19.4034 82.58C19.6568 82.9 20.1101 83.06 20.7634 83.06C21.2834 83.06 21.7434 83.0267 22.1434 82.96C22.5568 82.88 23.0168 82.6933 23.5234 82.4V74.38H24.7834V84H23.7434L23.6634 83.38C23.0501 83.6733 22.5234 83.8667 22.0834 83.96C21.6434 84.0533 21.1634 84.1 20.6434 84.1ZM26.8323 84V83.12H29.0123V71.62H26.8523V70.74H30.2723V83.12H32.3323V84H26.8323ZM33.4925 84V83.12H35.6725V71.62H33.5125V70.74H36.9325V83.12H38.9925V84H33.4925ZM43.7527 84.1C43.2327 84.1 42.686 84.0333 42.1127 83.9C41.5527 83.7533 41.026 83.56 40.5327 83.32L40.9327 82.36C41.266 82.5467 41.686 82.7133 42.1927 82.86C42.7127 82.9933 43.2127 83.06 43.6927 83.06C44.2927 83.06 44.7727 82.9333 45.1327 82.68C45.506 82.4133 45.6927 81.9933 45.6927 81.42C45.6927 80.9667 45.586 80.6267 45.3727 80.4C45.1727 80.1733 44.8527 79.9867 44.4127 79.84L42.9527 79.4C42.4193 79.2267 41.9927 79.0467 41.6727 78.86C41.3527 78.6733 41.106 78.42 40.9327 78.1C40.7593 77.7667 40.6727 77.34 40.6727 76.82C40.6727 75.9533 40.9727 75.3067 41.5727 74.88C42.1727 74.4533 42.926 74.24 43.8327 74.24C44.7793 74.24 45.646 74.4267 46.4327 74.8L46.0727 75.74C45.766 75.5933 45.4193 75.48 45.0327 75.4C44.6593 75.3067 44.2927 75.26 43.9327 75.26C43.3327 75.26 42.8393 75.3933 42.4527 75.66C42.066 75.9133 41.8727 76.32 41.8727 76.88C41.8727 77.1733 41.926 77.4 42.0327 77.56C42.1393 77.72 42.286 77.8467 42.4727 77.94C42.6593 78.0333 42.9393 78.14 43.3127 78.26L44.7527 78.72C45.5393 78.9733 46.0927 79.2867 46.4127 79.66C46.746 80.0333 46.9127 80.6 46.9127 81.36C46.9127 82.3067 46.6127 83 46.0127 83.44C45.426 83.88 44.6727 84.1 43.7527 84.1ZM52.2563 84.1C51.5763 84.0867 51.0496 83.94 50.6763 83.66C50.3029 83.38 50.0429 82.9667 49.8963 82.42C49.7629 81.8733 49.6963 81.14 49.6963 80.22V75.26H48.1963V74.38H49.7363L49.9763 71.62H50.9563V74.38H53.9563V75.26H50.9563V80.24C50.9563 81.0667 51.0163 81.68 51.1363 82.08C51.2696 82.48 51.4429 82.7467 51.6563 82.88C51.8829 83 52.1963 83.06 52.5963 83.06C53.3163 83.06 53.8029 83.04 54.0563 83L54.1163 84C53.5963 84.0667 52.9763 84.1 52.2563 84.1ZM59.0623 84.1C58.129 84.1 57.3757 83.8667 56.8023 83.4C56.2423 82.9333 55.9623 82.26 55.9623 81.38C55.9623 80.5267 56.3357 79.8267 57.0823 79.28C57.829 78.7333 59.049 78.46 60.7423 78.46H61.5823V78.16C61.5823 77.0933 61.3957 76.3467 61.0223 75.92C60.6623 75.48 60.149 75.26 59.4823 75.26C59.1223 75.26 58.7623 75.3 58.4023 75.38C58.0423 75.4467 57.4957 75.5733 56.7623 75.76L56.5223 74.8C57.6423 74.4267 58.6423 74.24 59.5223 74.24C60.5357 74.24 61.3357 74.54 61.9223 75.14C62.5223 75.7267 62.8223 76.6733 62.8223 77.98V84H61.9223L61.7223 83.36C61.4823 83.5467 61.1023 83.72 60.5823 83.88C60.0623 84.0267 59.5557 84.1 59.0623 84.1ZM59.2423 83.1C59.6557 83.1 60.0823 83.04 60.5223 82.92C60.9623 82.7867 61.3157 82.6333 61.5823 82.46V79.38H61.0423C59.9357 79.38 59.009 79.5067 58.2623 79.76C57.5157 80.0133 57.1423 80.52 57.1423 81.28C57.1423 81.88 57.3223 82.3333 57.6823 82.64C58.0423 82.9467 58.5623 83.1 59.2423 83.1ZM69.1592 84.1C68.4126 84.1 67.7459 83.9133 67.1592 83.54C66.5726 83.1667 66.1059 82.6133 65.7592 81.88C65.4259 81.1333 65.2592 80.2267 65.2592 79.16C65.2592 75.88 66.5192 74.24 69.0392 74.24C69.9459 74.24 70.8059 74.4333 71.6192 74.82V77.34L70.6192 77.44V75.48C70.2192 75.32 69.6859 75.24 69.0192 75.24C68.0992 75.24 67.4459 75.58 67.0592 76.26C66.6859 76.94 66.4992 77.9133 66.4992 79.18C66.4992 80.42 66.7459 81.38 67.2392 82.06C67.7459 82.74 68.4259 83.08 69.2792 83.08C70.0526 83.08 70.7992 82.8333 71.5192 82.34L71.9992 83.22C71.5592 83.54 71.1059 83.7667 70.6392 83.9C70.1859 84.0333 69.6926 84.1 69.1592 84.1ZM73.9967 70.74H75.2567V79.18C76.9634 77.3667 78.4301 75.7667 79.6567 74.38H81.1567L77.0967 78.9L81.4967 84H80.0567L76.1367 79.52L75.2567 80.32V84H73.9967V70.74ZM5.02 103.1C3.78 103.1 2.80667 102.707 2.1 101.92C1.40667 101.133 1.06 99.8867 1.06 98.18C1.06 97.06 1.22 96.1333 1.54 95.4C1.87333 94.6533 2.31333 94.1067 2.86 93.76C3.42 93.4133 4.04 93.24 4.72 93.24C5.16 93.24 5.57333 93.2933 5.96 93.4C6.34667 93.5067 6.77333 93.7 7.24 93.98V89.74H8.5V103H7.48L7.38 102.52C6.64667 102.907 5.86 103.1 5.02 103.1ZM5.46 102.06C5.78 102.06 6.06667 102.04 6.32 102C6.57333 101.947 6.88 101.833 7.24 101.66V95.1C6.72 94.7933 6.28 94.58 5.92 94.46C5.56 94.3267 5.21333 94.26 4.88 94.26C4.08 94.26 3.44667 94.5933 2.98 95.26C2.52667 95.9133 2.3 96.8933 2.3 98.2C2.3 100.773 3.26667 102.06 5.2 102.06H5.46ZM15.0633 103.1C12.3033 103.1 10.9233 101.453 10.9233 98.16C10.9233 96.52 11.2766 95.2933 11.9833 94.48C12.6899 93.6533 13.6366 93.24 14.8233 93.24C15.8899 93.24 16.7299 93.5933 17.3433 94.3C17.9699 94.9933 18.2833 95.9267 18.2833 97.1L18.2433 98L18.2033 98.42H12.1633C12.1766 99.7933 12.4433 100.747 12.9633 101.28C13.4833 101.8 14.1566 102.06 14.9833 102.06C15.4899 102.06 15.9633 102 16.4033 101.88C16.8433 101.76 17.2833 101.56 17.7233 101.28L18.1033 102.26C17.6499 102.54 17.1499 102.753 16.6033 102.9C16.0699 103.033 15.5566 103.1 15.0633 103.1ZM17.1233 97.54V97.06C17.1233 96.2067 16.9166 95.5267 16.5033 95.02C16.0899 94.5133 15.5299 94.26 14.8233 94.26C14.0099 94.26 13.3833 94.5467 12.9433 95.12C12.5033 95.6933 12.2433 96.5 12.1633 97.54H17.1233ZM23.1173 103L19.9173 93.38H21.1773L23.7973 101.66L26.2773 93.38H27.5573L24.4573 103H23.1173ZM33.3836 103.1C30.6236 103.1 29.2436 101.453 29.2436 98.16C29.2436 96.52 29.5969 95.2933 30.3036 94.48C31.0103 93.6533 31.9569 93.24 33.1436 93.24C34.2103 93.24 35.0503 93.5933 35.6636 94.3C36.2903 94.9933 36.6036 95.9267 36.6036 97.1L36.5636 98L36.5236 98.42H30.4836C30.4969 99.7933 30.7636 100.747 31.2836 101.28C31.8036 101.8 32.4769 102.06 33.3036 102.06C33.8103 102.06 34.2836 102 34.7236 101.88C35.1636 101.76 35.6036 101.56 36.0436 101.28L36.4236 102.26C35.9703 102.54 35.4703 102.753 34.9236 102.9C34.3903 103.033 33.8769 103.1 33.3836 103.1ZM35.4436 97.54V97.06C35.4436 96.2067 35.2369 95.5267 34.8236 95.02C34.4103 94.5133 33.8503 94.26 33.1436 94.26C32.3303 94.26 31.7036 94.5467 31.2636 95.12C30.8236 95.6933 30.5636 96.5 30.4836 97.54H35.4436ZM38.2777 103V102.12H40.4577V90.62H38.2977V89.74H41.7177V102.12H43.7777V103H38.2777ZM49.0578 103.1C47.7911 103.1 46.8511 102.673 46.2378 101.82C45.6245 100.953 45.3178 99.7333 45.3178 98.16C45.3178 96.52 45.6178 95.2933 46.2178 94.48C46.8178 93.6533 47.7645 93.24 49.0578 93.24C50.3511 93.24 51.2978 93.6533 51.8978 94.48C52.5111 95.2933 52.8178 96.52 52.8178 98.16C52.8178 99.7333 52.5111 100.953 51.8978 101.82C51.2845 102.673 50.3378 103.1 49.0578 103.1ZM49.0578 102.06C49.9778 102.06 50.6245 101.727 50.9978 101.06C51.3711 100.393 51.5578 99.4267 51.5578 98.16C51.5578 96.92 51.3645 95.96 50.9778 95.28C50.6045 94.6 49.9645 94.26 49.0578 94.26C48.1511 94.26 47.5045 94.6 47.1178 95.28C46.7445 95.96 46.5578 96.92 46.5578 98.16C46.5578 99.4267 46.7445 100.393 47.1178 101.06C47.4911 101.727 48.1378 102.06 49.0578 102.06ZM55.2272 93.38H56.2672L56.3672 94.06C56.8472 93.7533 57.3072 93.54 57.7472 93.42C58.2005 93.3 58.6672 93.24 59.1472 93.24C60.1605 93.24 60.9605 93.6467 61.5472 94.46C62.1339 95.26 62.4272 96.5 62.4272 98.18C62.4272 99.9267 62.1272 101.187 61.5272 101.96C60.9405 102.72 60.0472 103.1 58.8472 103.1C57.9672 103.1 57.1805 102.927 56.4872 102.58V106.8H55.2272V93.38ZM58.6672 102.06C59.5472 102.06 60.1805 101.767 60.5672 101.18C60.9672 100.58 61.1672 99.5867 61.1672 98.2C61.1672 96.84 60.9939 95.8467 60.6472 95.22C60.3005 94.58 59.7472 94.26 58.9872 94.26C58.2805 94.26 57.4472 94.54 56.4872 95.1V101.66C56.8472 101.833 57.1672 101.947 57.4472 102C57.7272 102.04 58.0405 102.06 58.3872 102.06H58.6672ZM68.6375 103.1C65.8775 103.1 64.4975 101.453 64.4975 98.16C64.4975 96.52 64.8508 95.2933 65.5575 94.48C66.2642 93.6533 67.2108 93.24 68.3975 93.24C69.4642 93.24 70.3042 93.5933 70.9175 94.3C71.5442 94.9933 71.8575 95.9267 71.8575 97.1L71.8175 98L71.7775 98.42H65.7375C65.7508 99.7933 66.0175 100.747 66.5375 101.28C67.0575 101.8 67.7308 102.06 68.5575 102.06C69.0642 102.06 69.5375 102 69.9775 101.88C70.4175 101.76 70.8575 101.56 71.2975 101.28L71.6775 102.26C71.2242 102.54 70.7242 102.753 70.1775 102.9C69.6442 103.033 69.1308 103.1 68.6375 103.1ZM70.6975 97.54V97.06C70.6975 96.2067 70.4908 95.5267 70.0775 95.02C69.6642 94.5133 69.1042 94.26 68.3975 94.26C67.5842 94.26 66.9575 94.5467 66.5175 95.12C66.0775 95.6933 65.8175 96.5 65.7375 97.54H70.6975ZM74.2716 93.38H75.4716L75.5116 94.22C75.8849 93.9667 76.3649 93.7467 76.9516 93.56C77.5516 93.3733 78.1049 93.2667 78.6116 93.24V94.28C78.0382 94.28 77.4582 94.3667 76.8716 94.54C76.2982 94.7133 75.8516 94.9133 75.5316 95.14V103H74.2716V93.38ZM80.9588 104.18L80.1788 103.82L86.3588 88.38L87.1388 88.76L80.9588 104.18ZM89.7106 102.4L89.1506 101.54L95.4506 97.18L89.1506 92.94L89.7106 92.1L96.6706 96.86V97.5L89.7106 102.4Z" fill="white"/>
<path d="M56 6C56 6 51.3088 1 41.5 1C31.6912 1 27 6 27 6" stroke="#FFE600" stroke-linecap="round"/>
</svg>
